<?xml version="1.0" standalone="no"?>
<!DOCTYPE svg PUBLIC "-//W3C//DTD SVG 20010904//EN"
 "http://www.w3.org/TR/2001/REC-SVG-20010904/DTD/svg10.dtd">
<svg version="1.0" xmlns="http://www.w3.org/2000/svg"
 width="1050.000000pt" height="600.000000pt" viewBox="0 0 1050.000000 600.000000"
 preserveAspectRatio="xMidYMid meet">

<g transform="translate(0.000000,600.000000) scale(0.100000,-0.100000)"
fill="#000000" stroke="none">
<path d="M3242 5583 c2 -10 28 -30 58 -45 l55 -27 -39 -1 c-21 0 -77 15 -125
34 -141 57 -251 48 -146 -11 l40 -23 -114 0 c-71 0 -136 6 -174 16 -56 14 -62
14 -73 0 -10 -14 -112 -16 -1022 -16 l-1011 0 -11 -40 c-15 -57 -63 -107 -121
-127 l-49 -18 0 -2332 0 -2333 20 0 c35 0 100 -39 121 -73 10 -18 24 -49 30
-69 l10 -38 4553 0 4553 0 7 42 c9 53 77 124 131 134 l35 6 0 2333 0 2333 -27
7 c-70 16 -143 96 -143 155 l0 20 -1502 0 c-974 0 -1498 -4 -1488 -10 10 -6
552 -10 1483 -10 l1467 0 24 -53 c25 -58 83 -113 131 -125 l30 -8 3 -2306 2
-2306 -29 -7 c-58 -13 -131 -87 -147 -149 l-6 -26 -4529 0 c-4071 0 -4529 2
-4529 15 0 27 -38 92 -70 118 -17 15 -49 32 -70 38 l-40 12 0 2303 0 2303 41
12 c22 7 57 30 78 51 35 34 47 55 65 111 5 16 58 17 1023 15 l1018 -3 64 -42
64 -43 -1049 0 -1050 0 -11 -43 c-7 -23 -21 -55 -33 -70 -25 -31 -89 -67 -120
-67 l-20 0 0 -2218 0 -2218 46 -13 c58 -17 112 -71 127 -128 l11 -43 4443 0
c3530 0 4444 3 4448 13 2 6 6 25 10 41 9 42 73 102 123 115 l42 12 0 2219 0
2220 -22 0 c-30 0 -102 44 -122 74 -9 14 -20 43 -24 63 l-8 38 -1354 2 c-1194
2 -1353 1 -1336 -12 17 -13 194 -15 1338 -15 l1317 0 22 -50 c25 -57 71 -103
123 -120 l36 -12 0 -2193 0 -2192 -30 -6 c-43 -9 -118 -82 -132 -128 l-11 -39
-814 0 c-572 0 -812 3 -808 11 11 16 -23 47 -100 92 -38 22 -72 42 -74 44 -3
2 10 19 29 38 38 39 34 52 -29 85 -24 12 -31 20 -21 23 194 57 293 100 360
156 24 19 32 33 27 45 -6 15 -16 16 -79 11 -165 -14 -268 -46 -410 -126 -122
-68 -139 -63 -54 16 48 44 84 68 120 80 28 9 81 35 119 56 64 38 67 41 67 78
0 23 8 48 20 64 20 25 20 26 1 32 -29 9 -53 42 -53 71 l0 27 -64 -6 c-35 -4
-64 -5 -64 -3 0 9 130 106 143 106 23 0 133 52 120 57 -7 2 -33 -5 -58 -16
-56 -25 -58 -12 -5 30 22 18 43 43 46 56 6 24 58 73 77 73 6 0 29 17 52 39 22
21 52 43 67 47 30 10 38 31 10 26 -14 -3 -15 -1 -4 9 14 15 16 43 2 34 -5 -3
-10 -2 -10 4 0 14 70 174 81 186 5 5 9 16 9 24 0 13 -2 13 -14 1 -23 -24 -83
-150 -101 -213 -18 -64 -35 -80 -107 -97 -69 -18 -73 -12 -39 54 35 65 35 66
21 66 -6 0 -24 -32 -41 -70 -30 -67 -35 -71 -76 -70 -5 0 -6 21 -4 46 2 32 0
44 -8 40 -6 -4 -11 -19 -12 -34 -1 -48 -13 -60 -114 -110 -55 -28 -101 -50
-102 -49 -1 1 26 36 60 78 34 41 84 104 110 138 46 59 50 63 81 57 42 -8 66 1
66 24 0 9 9 29 20 43 26 32 25 44 -2 58 -13 6 -25 13 -27 15 -7 6 31 44 44 44
7 0 18 6 24 14 7 8 31 18 54 21 59 10 110 38 144 79 32 40 118 204 110 212 -3
3 -32 -15 -66 -41 -48 -36 -175 -105 -194 -105 -2 0 7 37 20 81 12 45 23 91
23 103 0 31 17 49 83 86 70 39 91 68 91 128 1 57 -13 62 -39 15 -20 -37 -24
-40 -83 -67 -40 -18 -39 -23 -45 121 -4 79 -2 115 6 121 7 6 37 17 67 26 72
21 116 48 140 88 28 46 25 51 -15 24 -21 -15 -64 -29 -108 -36 -39 -7 -82 -16
-93 -21 -20 -7 -23 -3 -34 52 -10 45 -10 63 -1 72 15 15 14 62 -4 96 -14 28
-155 161 -170 161 -4 0 -6 -45 -3 -100 3 -94 5 -101 33 -131 17 -17 48 -40 71
-50 36 -17 42 -24 52 -70 7 -29 10 -54 8 -57 -3 -2 -15 3 -28 12 -12 9 -37 16
-56 16 -22 0 -41 8 -58 25 -14 14 -29 25 -34 25 -16 0 -21 -56 -8 -95 19 -57
52 -71 129 -55 33 7 62 10 65 7 9 -8 26 -172 22 -209 -3 -29 -8 -24 -73 75
-38 58 -74 105 -80 103 -15 -5 -8 -135 10 -185 20 -59 57 -105 94 -120 39 -17
42 -26 26 -102 -18 -83 -33 -122 -44 -114 -18 11 -22 61 -6 97 24 59 5 81 -49
57 -22 -10 -28 -8 -48 15 -13 14 -37 30 -54 35 l-32 9 -6 -47 c-7 -53 -35
-111 -53 -111 -7 0 -17 -17 -22 -37 -16 -61 -41 -203 -41 -232 0 -18 -12 -39
-35 -61 -19 -18 -36 -32 -39 -29 -2 2 1 35 7 72 10 64 9 69 -11 83 -31 21 -39
77 -16 119 15 28 16 38 6 59 -22 49 -72 23 -72 -37 0 -13 9 -32 20 -42 11 -10
20 -28 20 -39 0 -12 12 -39 26 -59 25 -37 25 -41 14 -105 -15 -89 -19 -102
-34 -102 -8 0 -16 -17 -20 -40 -7 -43 -25 -90 -36 -90 -9 0 -77 168 -85 211
-6 31 -2 43 27 85 18 27 43 57 56 67 25 21 29 55 7 63 -22 9 -45 -14 -45 -43
0 -27 -38 -103 -51 -103 -5 0 -11 17 -14 38 -3 20 -8 46 -10 57 -2 11 3 29 11
39 29 40 12 126 -26 126 -49 0 -70 -106 -26 -135 19 -13 25 -28 30 -76 4 -34
16 -89 26 -123 11 -33 20 -62 20 -63 0 -3 -56 15 -82 27 -23 11 -28 20 -28 51
0 49 -36 78 -75 61 -36 -16 -35 -75 0 -98 14 -9 32 -14 40 -11 12 5 87 -22
143 -51 8 -4 26 -37 42 -74 l29 -68 -27 -57 c-21 -47 -26 -73 -27 -135 0 -47
-5 -82 -12 -89 -15 -15 -19 -7 -33 81 -16 101 -13 144 10 165 24 22 27 91 6
120 -12 17 -18 18 -40 7 -14 -6 -26 -15 -26 -20 0 -4 -18 -28 -40 -52 -159
-176 -295 -472 -322 -702 l-12 -101 -75 -60 c-41 -32 -103 -73 -138 -90 -46
-23 -60 -34 -52 -43 7 -9 5 -22 -6 -43 l-16 -31 39 0 c30 0 45 -7 68 -31 16
-17 56 -47 88 -67 55 -34 58 -37 33 -40 -18 -2 -49 11 -97 42 -99 64 -138 82
-195 90 l-49 6 39 -41 c22 -23 58 -53 80 -68 l40 -26 -125 -5 c-69 -3 -134
-10 -144 -14 -14 -7 -17 -6 -12 2 5 8 -744 11 -2890 12 -1593 0 -2900 3 -2905
6 -5 3 -9 13 -9 23 0 47 -103 141 -155 141 -13 0 -15 225 -15 2193 l0 2194 38
11 c49 15 107 73 128 128 l17 44 823 0 823 0 3 -22 c2 -18 23 -33 87 -65 47
-24 89 -44 95 -46 6 -3 -2 -18 -18 -35 -35 -38 -30 -58 24 -80 45 -19 49 -28
18 -37 -143 -44 -348 -176 -348 -226 0 -23 0 -24 123 2 133 27 220 65 340 150
128 90 152 88 66 -6 -46 -50 -83 -79 -129 -102 -36 -18 -86 -51 -112 -73 -41
-36 -46 -44 -37 -61 8 -16 6 -29 -9 -59 l-19 -40 21 -6 c34 -10 56 -35 56 -65
l0 -27 57 13 c32 7 60 11 62 9 13 -12 -99 -106 -165 -139 -41 -20 -74 -40 -74
-46 0 -14 9 -11 57 17 25 14 46 24 49 22 2 -3 -14 -24 -36 -48 -22 -24 -40
-51 -40 -59 0 -24 -27 -59 -59 -75 -15 -8 -38 -31 -52 -51 -13 -20 -42 -46
-64 -58 -27 -14 -35 -22 -24 -24 12 -3 15 -11 11 -25 -4 -16 -2 -19 8 -13 10
6 11 0 6 -31 -7 -36 -42 -144 -61 -188 -6 -13 -5 -18 5 -14 17 5 64 127 85
222 l17 78 62 29 c53 25 86 35 86 27 0 -2 -9 -27 -20 -56 -21 -55 -27 -93 -11
-77 5 6 18 40 30 77 16 47 28 69 42 73 28 9 33 2 31 -45 -1 -22 3 -40 8 -40 6
0 10 22 10 49 0 42 3 51 21 56 12 4 57 31 100 61 44 29 79 51 79 49 0 -3 -20
-36 -44 -73 -24 -37 -65 -102 -90 -144 -46 -74 -49 -77 -88 -80 -24 -2 -44 -9
-48 -18 -4 -8 -15 -32 -25 -52 -20 -42 -15 -68 15 -68 33 0 23 -28 -20 -55
-22 -14 -40 -30 -40 -35 0 -6 -7 -10 -16 -10 -8 0 -38 -10 -65 -21 -61 -27
-98 -77 -139 -187 -15 -42 -31 -85 -35 -94 -12 -29 9 -21 46 18 42 44 145 119
178 129 23 7 23 6 16 -31 -4 -22 -11 -72 -14 -111 -7 -78 -5 -74 -88 -134 -50
-35 -73 -74 -73 -123 0 -65 23 -90 35 -37 3 15 18 39 33 53 32 30 81 62 86 57
2 -2 11 -47 20 -99 9 -52 19 -107 22 -121 7 -31 -14 -47 -94 -73 -41 -14 -60
-28 -87 -63 -44 -57 -47 -82 -7 -54 21 16 196 81 215 81 15 0 35 -96 31 -138
-5 -39 -2 -53 18 -82 21 -32 175 -147 183 -138 9 9 -26 183 -40 205 -19 28
-68 60 -106 68 -22 5 -30 16 -43 55 -20 62 -21 61 10 50 14 -6 43 -10 65 -10
26 0 46 -7 59 -20 11 -11 24 -20 29 -20 18 0 19 56 1 96 -23 53 -60 68 -116
47 -74 -28 -86 -24 -101 32 -7 28 -15 82 -19 120 l-6 70 20 -30 c11 -16 38
-50 61 -75 23 -25 49 -55 58 -67 16 -25 43 -31 43 -10 -1 34 -31 150 -49 185
-23 45 -71 89 -106 98 -14 3 -27 15 -31 26 -7 22 15 188 25 188 3 0 14 -15 24
-33 16 -30 17 -35 3 -62 -21 -40 -20 -52 5 -66 17 -9 25 -7 42 9 l22 20 35
-29 c20 -17 46 -29 63 -29 27 0 28 2 26 43 -1 23 3 52 9 64 7 12 12 29 12 37
0 9 6 16 14 16 20 0 26 32 33 174 l6 130 34 35 35 36 -5 -120 c-3 -66 -2 -100
2 -75 7 53 18 55 43 9 21 -38 23 -60 7 -76 -15 -15 -7 -74 13 -87 27 -16 63 8
63 43 0 16 -3 27 -7 24 -5 -2 -8 3 -8 12 0 9 -9 19 -19 22 -11 3 -21 17 -24
32 -3 16 -17 42 -31 59 -24 27 -26 38 -26 116 0 79 2 86 20 86 17 0 20 7 20
39 0 46 19 106 31 94 13 -13 109 -205 109 -218 0 -17 -48 -103 -77 -138 -18
-22 -21 -33 -13 -48 6 -10 15 -19 20 -19 16 0 42 48 36 67 -6 20 24 88 39 88
6 0 17 -26 24 -57 14 -53 14 -59 -4 -78 -10 -11 -23 -20 -30 -20 -6 0 -20 -7
-31 -16 -18 -15 -18 -15 3 -5 27 14 46 14 38 1 -3 -5 -2 -10 3 -10 14 0 32
-46 22 -56 -5 -5 4 -10 21 -11 24 -2 34 4 49 30 11 18 20 47 20 65 0 27 -5 35
-29 43 -24 8 -31 20 -45 72 -9 34 -27 88 -40 120 -13 31 -20 59 -16 62 4 2 27
-1 51 -8 30 -9 45 -19 47 -32 10 -65 40 -93 82 -80 24 7 37 51 23 74 -14 23
-55 41 -71 32 -9 -5 -34 -1 -61 10 -25 10 -57 20 -71 23 -18 4 -36 25 -63 71
l-38 66 20 55 c23 60 27 130 10 166 -11 26 4 84 20 74 10 -6 36 -96 51 -175 9
-49 8 -56 -10 -73 -23 -22 -27 -84 -7 -112 17 -23 58 -18 72 9 5 11 22 36 36
55 45 59 115 193 157 302 51 129 82 281 87 421 l4 109 37 41 c67 76 235 200
249 185 8 -7 -50 -120 -107 -210 -51 -82 -58 -108 -32 -108 34 0 135 136 194
262 32 67 40 102 18 80 -15 -15 -64 -16 -73 -1 -5 7 -15 5 -31 -5 -31 -21 -37
-20 -24 4 6 11 17 20 25 20 8 0 15 8 15 18 0 10 7 27 15 38 20 26 19 31 -10
38 -13 3 -30 16 -36 29 -7 12 -19 27 -28 34 -14 11 -13 12 6 13 12 0 25 5 28
10 4 6 -15 10 -50 10 -31 0 -69 7 -86 15 -57 30 -198 75 -234 75 -29 0 -36 -3
-33 -17z m-27 -138 l70 -40 -87 -3 c-82 -3 -90 -1 -172 37 -47 22 -86 43 -86
46 0 4 46 6 103 3 97 -3 105 -5 172 -43z m284 -5 c69 -36 73 -39 43 -40 -30 0
-192 72 -192 86 0 14 79 -10 149 -46z m156 -80 c6 -10 -62 -23 -75 -15 -16 10
-12 23 8 27 22 5 61 -2 67 -12z m-684 -7 c9 -9 3 -13 -27 -17 -22 -4 -69 -13
-106 -21 -65 -14 -70 -14 -179 15 -61 16 -114 32 -117 35 -4 3 89 5 205 3 146
-2 216 -7 224 -15z m437 -4 c40 -12 71 -24 69 -26 -7 -6 -146 -43 -164 -43
-16 0 -133 76 -133 86 0 14 164 1 228 -17z m83 -89 c-30 -22 -48 -29 -66 -24
-43 11 -37 21 23 37 84 22 89 20 43 -13z m-121 -85 c0 -2 -52 -47 -115 -100
-97 -81 -121 -96 -146 -93 -28 3 -25 7 73 88 93 78 142 108 176 109 6 1 12 -1
12 -4z m-270 -73 c0 -19 -128 -120 -160 -127 l-35 -7 60 63 c53 57 80 74 123
78 6 0 12 -3 12 -7z m160 -171 c0 -4 -50 -73 -111 -152 -92 -119 -110 -138
-104 -109 20 90 30 106 112 178 45 40 85 77 88 82 8 12 15 13 15 1z m-107
-261 c-22 -82 -26 -118 -27 -256 l-1 -161 -21 16 c-15 11 -25 36 -33 81 -7 36
-23 97 -36 135 l-23 70 80 108 c44 59 82 106 84 105 1 -2 -9 -46 -23 -98z
m-103 77 c0 -25 -64 -183 -85 -211 -25 -33 -32 -37 -60 -32 -42 8 -179 -10
-215 -29 -17 -9 -30 -12 -30 -8 0 5 35 42 78 84 52 51 101 88 152 114 41 21
91 48 110 61 32 21 50 29 50 21z m-180 -417 c0 -20 -59 -95 -68 -85 -4 4 58
105 66 105 1 0 2 -9 2 -20z m16 -230 c5 -31 1 -42 -31 -80 -21 -25 -41 -46
-45 -48 -18 -7 -17 31 2 75 19 43 19 50 6 73 -9 16 -12 33 -7 45 5 11 16 38
25 60 l17 40 13 -65 c8 -36 17 -81 20 -100z m-81 76 c-10 -25 -26 -53 -36 -62
-11 -9 -19 -24 -19 -32 0 -9 -6 -12 -16 -8 -9 3 -20 6 -25 6 -5 0 -2 14 7 31
18 36 95 122 102 115 2 -3 -4 -25 -13 -50z m-168 -294 c-16 -15 -37 -9 -37 11
0 7 10 28 23 47 l22 35 3 -39 c2 -25 -2 -44 -11 -54z m41 -57 c21 -43 21 -46
5 -80 -9 -19 -20 -35 -24 -35 -3 0 -23 20 -42 44 l-36 44 32 36 c18 20 34 36
38 36 3 0 15 -20 27 -45z m48 -82 c7 -10 14 -26 14 -35 0 -10 5 -18 10 -18 6
0 10 -8 10 -17 0 -13 -3 -14 -12 -5 -7 7 -17 8 -28 2 -13 -7 -22 -4 -35 10
-16 18 -16 20 1 49 21 36 23 37 40 14z m5194 -1399 c0 -8 -4 -12 -10 -9 -5 3
-10 10 -10 16 0 5 5 9 10 9 6 0 10 -7 10 -16z m70 -38 c-1 -12 -39 -61 -43
-55 -1 2 -8 11 -15 21 -16 21 -6 66 16 71 17 4 42 -19 42 -37z m53 -55 c15
-22 27 -41 27 -44 0 -9 -58 -67 -68 -67 -5 0 -17 20 -26 44 -16 41 -16 47 -1
75 20 41 34 39 68 -8z m-9 -127 c14 -5 13 -11 -6 -45 -26 -46 -38 -50 -38 -10
0 54 11 68 44 55z m-194 -99 c0 -13 -5 -27 -11 -31 -6 -3 -17 -22 -25 -40 -11
-26 -12 -38 -3 -52 10 -15 7 -30 -15 -75 -15 -32 -31 -57 -36 -57 -9 0 -16
109 -11 175 1 20 16 44 43 72 44 45 58 47 58 8z m80 -101 c0 -18 -116 -131
-125 -122 -9 8 33 83 59 105 14 13 26 28 26 33 0 7 6 7 20 0 11 -6 20 -13 20
-16z m-413 -144 c7 -10 15 -45 19 -77 3 -32 12 -93 21 -135 l16 -77 -83 -88
c-46 -48 -88 -91 -95 -95 -7 -5 -3 16 11 50 47 118 76 235 81 340 3 56 9 102
12 102 3 0 12 -9 18 -20z m273 -40 c-39 -49 -50 -56 -50 -32 0 15 62 72 78 72
2 0 -11 -18 -28 -40z m150 -194 c0 -2 -37 -35 -82 -73 -65 -55 -98 -75 -153
-93 -38 -12 -96 -36 -128 -53 -31 -16 -60 -28 -62 -25 -9 9 83 183 111 210 26
24 33 26 69 18 55 -13 131 -11 185 4 54 16 60 17 60 12z m-429 -209 c-20 -49
-32 -61 -123 -126 -55 -39 -103 -70 -105 -67 -3 2 50 61 118 130 67 70 124
124 127 121 2 -2 -5 -29 -17 -58z m-71 -258 c9 -6 11 -12 4 -15 -5 -2 -56 -36
-112 -74 -67 -46 -116 -72 -142 -76 -22 -4 -40 -3 -40 2 0 5 37 32 82 59 45
28 100 64 122 82 44 34 62 39 86 22z m180 -13 c0 -2 -26 -26 -57 -54 -43 -36
-69 -51 -101 -56 -27 -4 -41 -3 -37 3 14 23 151 111 172 111 13 0 23 -2 23 -4z
m-525 -208 c29 -13 33 -28 6 -28 -10 0 -40 -3 -67 -6 l-49 -5 40 25 c47 30 38
29 70 14z m118 -59 c12 -7 41 -29 63 -50 23 -20 68 -54 100 -76 l57 -38 -75
-3 -76 -3 -79 54 c-44 30 -100 62 -126 72 -26 10 -47 21 -47 25 0 5 76 20 148
28 7 1 23 -3 35 -9z m560 -86 c18 -9 75 -31 127 -50 l95 -33 -187 0 -188 0
-52 38 -53 37 98 6 c54 4 101 10 104 13 10 9 22 7 56 -11z m-1726 -99 c-3 -3
-12 -4 -19 -1 -8 3 -5 6 6 6 11 1 17 -2 13 -5z"/>
<path d="M3945 5500 c-4 -7 471 -10 1417 -10 910 0 1418 4 1408 10 -21 13
-2817 13 -2825 0z"/>
<path d="M4720 5451 c0 -6 5 -13 12 -17 6 -4 8 -3 4 4 -3 5 0 13 6 15 8 3 6 6
-4 6 -10 1 -18 -3 -18 -8z"/>
<path d="M4795 5425 l40 -24 -395 -2 c-217 -1 -407 -1 -422 -1 -14 1 -29 -5
-32 -13 -4 -12 55 -14 392 -15 218 -1 410 -3 425 -5 32 -4 57 -22 57 -41 0 -7
4 -15 9 -19 5 -3 8 10 6 30 l-3 35 996 1 c549 0 1022 0 1052 0 51 -1 54 0 36
14 -24 18 -111 21 -100 3 5 -8 2 -9 -12 -2 -11 5 -432 10 -1006 12 l-987 2
-37 25 c-20 14 -42 25 -48 25 -6 0 7 -11 29 -25z"/>
<path d="M4817 5349 c7 -7 15 -10 18 -7 3 3 -2 9 -12 12 -14 6 -15 5 -6 -5z"/>
<path d="M4585 5340 c3 -5 11 -10 16 -10 6 0 7 5 4 10 -3 6 -11 10 -16 10 -6
0 -7 -4 -4 -10z"/>
<path d="M4683 5343 c20 -5 23 -29 5 -36 -7 -3 -2 -6 13 -6 14 -1 31 -7 38
-13 11 -11 12 -10 7 0 -4 7 -2 20 6 29 9 12 9 15 1 9 -7 -4 -23 0 -35 8 -12 9
-29 15 -38 15 -11 -1 -11 -2 3 -6z"/>
<path d="M4907 5324 c4 -12 3 -15 -6 -10 -7 5 -10 2 -9 -6 2 -7 11 -16 22 -21
10 -4 16 -13 13 -21 -3 -8 5 -19 21 -26 l27 -13 -25 -7 c-14 -5 13 -5 60 -3
97 7 118 13 41 13 -29 0 -62 5 -74 11 -29 16 -56 50 -57 71 0 9 -4 20 -10 23
-6 4 -7 -1 -3 -11z"/>
<path d="M4772 5314 c-11 -12 -10 -14 3 -14 9 0 13 -4 10 -10 -3 -6 1 -7 10
-4 13 5 13 9 3 23 -7 9 -12 17 -13 17 0 1 -6 -4 -13 -12z"/>
<path d="M4868 5203 c7 -3 16 -2 19 1 4 3 -2 6 -13 5 -11 0 -14 -3 -6 -6z"/>
<path d="M4785 5191 c-25 -6 -27 -8 -10 -12 11 -3 34 0 50 7 33 14 13 17 -40
5z"/>
<path d="M4728 5173 c7 -3 16 -2 19 1 4 3 -2 6 -13 5 -11 0 -14 -3 -6 -6z"/>
<path d="M3975 5160 c3 -5 16 -15 28 -21 l22 -11 -22 21 c-23 22 -39 28 -28
11z"/>
<path d="M4088 5155 c17 -8 32 -19 32 -25 0 -6 -6 -8 -12 -5 -7 4 -4 0 7 -9
11 -8 28 -23 37 -32 10 -9 26 -14 37 -11 11 3 28 -1 38 -9 10 -7 25 -13 33
-13 9 0 6 4 -8 12 -12 7 -29 23 -38 35 -8 12 -23 22 -32 21 -12 0 -9 -3 7 -10
13 -5 21 -12 18 -16 -4 -3 -17 2 -29 11 -13 9 -38 28 -57 41 -19 14 -41 25
-50 25 -9 -1 -1 -7 17 -15z m99 -71 c-3 -3 -12 -4 -19 -1 -8 3 -5 6 6 6 11 1
17 -2 13 -5z"/>
<path d="M4749 5149 l-24 -20 28 17 c15 9 27 18 27 20 0 8 -8 4 -31 -17z"/>
<path d="M4625 5150 c-13 -5 -14 -9 -5 -9 8 0 24 4 35 9 13 5 14 9 5 9 -8 0
-24 -4 -35 -9z"/>
<path d="M4695 5110 c-14 -15 -32 -20 -74 -21 -43 -1 -49 -3 -26 -8 l30 -6
-25 -19 -25 -18 29 7 c27 6 28 5 15 -12 -13 -17 -13 -17 7 0 11 9 26 17 32 17
7 0 12 5 12 12 0 7 12 25 27 40 15 15 24 28 21 28 -3 0 -13 -9 -23 -20z"/>
<path d="M4440 5085 c-47 -19 -103 -35 -125 -36 -34 -1 -36 -2 -15 -8 24 -7
22 -9 -27 -34 -29 -15 -53 -30 -53 -32 0 -3 44 17 98 44 53 26 125 59 160 71
57 21 74 30 55 30 -5 0 -46 -16 -93 -35z"/>
<path d="M4077 5051 c9 -11 21 -18 25 -15 5 3 1 12 -9 20 -26 20 -35 17 -16
-5z"/>
<path d="M4499 5050 c-13 -10 -18 -19 -11 -20 6 0 12 4 12 8 0 5 10 14 23 20
12 6 17 11 11 11 -7 1 -22 -8 -35 -19z"/>
<path d="M3993 5036 c3 -8 1 -17 -6 -19 -7 -2 7 -4 30 -3 23 0 36 4 30 8 -9 6
-9 8 1 8 27 0 2 16 -28 18 -25 2 -31 -1 -27 -12z"/>
<path d="M4143 5043 c9 -2 23 -2 30 0 6 3 -1 5 -18 5 -16 0 -22 -2 -12 -5z"/>
<path d="M3890 5025 c-14 -8 -19 -14 -10 -14 8 0 24 6 34 14 25 19 9 19 -24 0z"/>
<path d="M4528 5033 c6 -2 18 -2 25 0 6 3 1 5 -13 5 -14 0 -19 -2 -12 -5z"/>
<path d="M4652 5014 c-1 -12 -9 -27 -17 -34 -9 -7 -15 -20 -14 -29 1 -9 -3
-27 -8 -41 -11 -27 -7 -44 8 -35 5 4 9 0 9 -7 0 -10 2 -10 9 1 5 8 7 21 4 28
-3 8 0 24 6 37 7 12 11 40 8 62 -2 21 -4 29 -5 18z"/>
<path d="M4584 4988 l-19 -23 23 19 c12 11 22 21 22 23 0 8 -8 2 -26 -19z"/>
<path d="M4111 4913 c-59 -37 -75 -43 -82 -32 -5 8 -8 21 -8 29 0 10 3 8 9 -5
7 -16 9 -17 9 -3 1 25 -20 33 -26 10 -7 -28 -29 -34 -45 -14 -12 16 -11 16 7
3 17 -12 16 -11 -2 9 -28 30 -41 19 -19 -15 16 -24 16 -25 -3 -25 -11 0 -32
-11 -48 -24 -15 -13 -42 -31 -60 -40 -18 -9 -38 -26 -44 -39 -10 -19 -8 -18
16 6 15 15 31 27 35 27 4 0 24 14 45 30 44 35 60 38 45 10 -7 -14 -7 -20 0
-20 5 0 10 5 10 10 0 6 7 10 15 10 8 0 15 -7 15 -16 0 -8 5 -12 10 -9 6 4 8
-7 6 -29 -4 -30 -2 -34 15 -33 11 1 19 9 19 18 0 28 11 49 22 43 7 -5 7 -1 1
11 -14 24 6 47 80 91 49 31 66 44 54 44 -2 0 -36 -21 -76 -47z"/>
<path d="M4553 4953 c-15 -5 -17 -23 -4 -23 5 0 11 7 15 15 3 8 4 15 3 14 -1
0 -8 -3 -14 -6z"/>
<path d="M4494 4888 c-27 -29 -28 -31 -6 -25 17 4 22 1 23 -16 1 -14 5 -8 11
16 6 20 16 37 24 37 21 0 17 16 -5 17 -10 1 -32 -12 -47 -29z"/>
<path d="M4591 4838 c0 -20 3 -39 8 -43 10 -6 41 32 41 50 -1 5 -8 -3 -18 -20
l-17 -30 -6 40 -6 40 -2 -37z"/>
<path d="M4455 4839 c-4 -6 -5 -12 -2 -15 2 -3 7 2 10 11 7 17 1 20 -8 4z"/>
<path d="M4489 4803 c-13 -16 -12 -17 4 -4 16 13 21 21 13 21 -2 0 -10 -8 -17
-17z"/>
<path d="M4040 4791 c0 -10 22 -31 33 -31 16 0 2 33 -15 36 -10 1 -18 -1 -18
-5z"/>
<path d="M3865 4769 c-16 -10 -25 -19 -19 -19 7 0 22 9 35 20 30 24 23 24 -16
-1z"/>
<path d="M3963 4764 c-12 -26 -12 -26 7 -9 20 18 26 35 13 35 -5 0 -13 -12
-20 -26z"/>
<path d="M3777 4720 c-9 -34 -4 -34 24 -3 13 15 17 22 7 15 -13 -10 -17 -10
-20 0 -3 7 -7 2 -11 -12z"/>
<path d="M4006 4723 c-6 -14 -5 -15 5 -6 7 7 10 15 7 18 -3 3 -9 -2 -12 -12z"/>
<path d="M3883 4723 c9 -2 23 -2 30 0 6 3 -1 5 -18 5 -16 0 -22 -2 -12 -5z"/>
<path d="M3822 4697 c-27 -28 -28 -37 -4 -36 11 0 13 2 4 6 -10 4 -8 11 9 29
12 13 20 24 17 24 -2 0 -14 -10 -26 -23z"/>
<path d="M3898 4683 c6 -2 18 -2 25 0 6 3 1 5 -13 5 -14 0 -19 -2 -12 -5z"/>
<path d="M3673 4490 c-28 -28 -49 -50 -46 -50 3 0 0 -7 -7 -15 -7 -8 -10 -15
-8 -15 2 0 30 29 62 65 31 36 56 65 54 65 -2 0 -26 -23 -55 -50z"/>
<path d="M3508 4462 c14 -10 6 -42 -11 -42 -6 0 -7 -3 -4 -7 4 -3 16 2 27 12
15 14 17 21 9 32 -6 7 -17 13 -23 13 -7 0 -6 -3 2 -8z"/>
<path d="M3324 4446 c-66 -29 -41 -51 47 -43 40 3 39 4 -13 5 -32 1 -58 6 -58
11 0 5 19 16 43 24 23 9 35 16 27 16 -8 0 -29 -6 -46 -13z"/>
<path d="M3413 4453 c9 -2 15 -9 12 -14 -4 -5 0 -9 7 -10 7 0 20 -2 30 -4 9
-2 18 4 20 14 4 13 -4 16 -41 17 -25 1 -38 0 -28 -3z"/>
<path d="M3564 4431 c3 -5 15 -7 26 -4 28 7 25 13 -6 13 -14 0 -23 -4 -20 -9z"/>
<path d="M3589 4383 c-13 -16 -12 -17 4 -4 16 13 21 21 13 21 -2 0 -10 -8 -17
-17z"/>
<path d="M3418 4363 c6 -2 10 -9 7 -14 -4 -5 1 -6 9 -3 20 8 11 24 -12 23 -11
0 -12 -2 -4 -6z"/>
<path d="M3540 4315 c-19 -27 -26 -45 -18 -45 11 1 62 90 52 90 -2 0 -17 -20
-34 -45z"/>
<path d="M3372 4333 c-16 -3 -22 -9 -18 -20 4 -9 1 -22 -6 -31 -11 -13 -10
-14 9 -4 12 7 25 17 28 22 3 6 16 11 28 11 17 1 18 2 4 6 -9 2 -15 9 -12 14 4
5 3 8 -2 8 -4 -1 -18 -4 -31 -6z"/>
<path d="M3296 4286 c-42 -39 -49 -63 -13 -45 29 15 37 24 15 16 -28 -10 -21
5 14 35 18 15 30 28 26 28 -4 0 -23 -15 -42 -34z"/>
<path d="M2200 4300 c-11 -7 2 -10 43 -10 31 0 57 -3 57 -7 0 -7 -109 -56
-182 -83 -16 -5 -28 -14 -28 -20 0 -13 1 -13 44 5 44 19 45 11 6 -41 -31 -41
-36 -54 -21 -54 5 0 28 28 51 62 36 54 49 66 103 89 34 14 62 32 62 40 0 23
-106 38 -135 19z"/>
<path d="M3521 4244 c0 -11 3 -14 6 -6 3 7 2 16 -1 19 -3 4 -6 -2 -5 -13z"/>
<path d="M3460 4190 c-6 -11 -8 -20 -6 -20 3 0 10 9 16 20 6 11 8 20 6 20 -3
0 -10 -9 -16 -20z"/>
<path d="M3512 4185 c0 -16 2 -22 5 -12 2 9 2 23 0 30 -3 6 -5 -1 -5 -18z"/>
<path d="M3483 4107 c-10 -12 -25 -31 -33 -42 -15 -20 -14 -20 8 -1 22 19 22
19 22 -5 1 -23 1 -23 13 -4 11 18 13 16 18 -25 l6 -45 2 50 1 50 20 -25 c11
-14 18 -33 16 -42 -2 -9 5 -25 15 -34 10 -9 19 -21 19 -27 0 -15 32 -78 38
-73 3 3 -1 12 -7 20 -16 19 -4 39 17 31 10 -4 6 6 -11 22 -15 16 -27 34 -27
41 0 7 -18 31 -40 53 -22 23 -40 47 -40 55 0 23 -17 24 -37 1z"/>
<path d="M3405 4089 c-9 -17 -15 -33 -13 -35 3 -2 12 12 21 31 21 43 13 47 -8
4z"/>
<path d="M2253 3997 c-21 -18 -57 -39 -80 -46 -24 -6 -43 -16 -43 -21 0 -13
12 -13 46 0 31 12 32 16 -45 -95 -23 -32 -41 -62 -41 -67 0 -22 23 -2 62 55
23 34 63 89 88 122 74 96 77 109 13 52z"/>
<path d="M3352 3975 c-17 -37 -14 -45 4 -12 9 16 14 31 11 33 -2 2 -9 -7 -15
-21z"/>
<path d="M3439 3983 c-13 -16 -12 -17 4 -4 16 13 21 21 13 21 -2 0 -10 -8 -17
-17z"/>
<path d="M3516 3934 c-4 -12 -2 -15 9 -10 9 3 15 0 15 -10 0 -10 -6 -14 -15
-10 -16 6 -21 -9 -6 -19 5 -3 7 -22 5 -43 -5 -36 -5 -36 9 -13 l14 24 17 -24
c22 -32 20 -11 -3 24 -10 15 -16 38 -14 51 6 28 -21 55 -31 30z"/>
<path d="M3326 3915 c-9 -26 -7 -32 5 -12 6 10 9 21 6 23 -2 3 -7 -2 -11 -11z"/>
<path d="M3661 3887 c-1 -12 -6 -16 -13 -11 -10 5 -10 4 -1 -6 16 -17 26 -8
20 17 -4 17 -5 17 -6 0z"/>
<path d="M3298 3855 c-9 -12 -35 -31 -58 -43 -27 -13 -36 -22 -26 -25 8 -3 20
1 27 9 7 8 21 20 32 25 17 10 18 8 13 -23 -4 -22 1 -14 14 21 11 30 19 55 17
57 -1 1 -10 -8 -19 -21z"/>
<path d="M3581 3784 c0 -11 3 -14 6 -6 3 7 2 16 -1 19 -3 4 -6 -2 -5 -13z"/>
<path d="M3540 3766 c0 -2 8 -10 18 -17 15 -13 16 -12 3 4 -13 16 -21 21 -21
13z"/>
<path d="M5014 3732 c-47 -30 -59 -70 -59 -207 0 -132 11 -178 52 -219 21 -21
35 -26 78 -26 111 0 153 78 135 256 -11 102 -27 148 -64 183 -34 32 -101 38
-142 13z m86 -117 c14 -17 26 -161 16 -199 -7 -30 -31 -34 -45 -8 -16 30 -24
164 -12 195 12 30 23 34 41 12z"/>
<path d="M3261 3714 c0 -11 3 -14 6 -6 3 7 2 16 -1 19 -3 4 -6 -2 -5 -13z"/>
<path d="M3781 3711 c-12 -12 -21 -40 -25 -75 -3 -31 -9 -80 -12 -110 l-5 -54
-52 -12 c-83 -20 -109 -37 -105 -68 3 -27 4 -27 78 -27 52 -1 75 -5 74 -13 -1
-7 -2 -24 -3 -39 -1 -25 -7 -30 -61 -46 -67 -19 -88 -43 -69 -78 10 -19 17
-21 69 -15 l57 7 5 -159 c4 -135 8 -164 24 -193 36 -62 123 -43 124 26 0 17
-2 214 -5 440 -4 372 -6 411 -22 422 -24 18 -50 16 -72 -6z"/>
<path d="M7246 3715 c-8 -9 -18 -30 -20 -48 -12 -74 -26 -376 -26 -554 0 -144
-3 -193 -12 -197 -10 -3 -8 -9 5 -19 9 -8 17 -23 17 -35 0 -11 11 -34 25 -50
19 -23 30 -28 52 -24 37 6 63 30 63 58 0 14 8 25 20 29 21 7 28 25 10 25 -5 0
-10 -5 -10 -12 0 -6 -3 -9 -6 -5 -5 5 -14 94 -17 162 -2 59 4 106 13 100 6 -3
7 1 4 9 -3 9 -10 16 -15 16 -5 0 -9 25 -9 56 l0 57 68 -6 c108 -9 105 -6 95
-106 -12 -133 -9 -172 17 -193 44 -35 102 -18 118 34 6 18 13 161 17 318 7
324 5 333 -57 338 -46 4 -54 -9 -62 -103 -16 -174 -13 -165 -54 -165 -21 0
-61 3 -89 6 l-53 7 0 143 c0 116 -3 145 -16 158 -20 20 -58 20 -78 1z"/>
<path d="M2881 3699 c0 -15 -8 -32 -16 -39 -27 -22 -14 -100 16 -100 33 0 52
77 25 100 -8 6 -17 24 -19 38 l-4 27 -2 -26z"/>
<path d="M6576 3678 c-9 -15 -16 -67 -20 -148 -4 -69 -11 -180 -17 -247 -11
-136 -6 -157 37 -167 20 -5 32 -2 47 12 16 17 21 43 30 156 l10 136 71 22 c83
24 96 33 96 62 0 37 -19 46 -97 46 l-73 0 0 63 c0 36 -5 68 -12 75 -19 19 -56
14 -72 -10z"/>
<path d="M3251 3674 c0 -11 3 -14 6 -6 3 7 2 16 -1 19 -3 4 -6 -2 -5 -13z"/>
<path d="M3996 3648 c-7 -13 -16 -59 -19 -103 -4 -44 -14 -180 -24 -302 -19
-243 -16 -267 33 -279 37 -9 77 7 91 37 8 16 14 125 19 321 6 268 5 299 -10
322 -22 34 -69 36 -90 4z"/>
<path d="M3059 3619 c-19 -17 -27 -27 -19 -22 48 25 51 7 9 -44 -30 -36 -30
-36 5 2 63 70 63 70 50 82 -9 9 -20 4 -45 -18z"/>
<path d="M3241 3634 c0 -11 3 -14 6 -6 3 7 2 16 -1 19 -3 4 -6 -2 -5 -13z"/>
<path d="M4632 3630 c-12 -5 -26 -20 -31 -33 -18 -46 -43 -326 -45 -488 -1
-151 1 -169 18 -188 26 -29 86 -29 112 0 17 18 20 42 24 181 l5 161 69 17 c69
18 86 30 86 61 0 30 -31 44 -94 44 l-61 0 -5 114 c-4 97 -8 115 -24 127 -22
16 -23 16 -54 4z"/>
<path d="M5883 3628 c-13 -6 -25 -19 -28 -28 -16 -51 -36 -268 -42 -447 -5
-178 -4 -205 11 -228 21 -32 86 -35 116 -5 18 18 20 33 20 168 0 103 4 153 13
164 6 9 36 21 66 28 29 7 62 21 72 31 11 11 19 14 19 8 0 -29 33 -118 51 -137
17 -19 30 -22 87 -21 123 1 193 34 166 77 -9 13 -27 17 -80 19 -38 0 -76 2
-85 2 -9 1 -19 12 -21 26 -5 22 -1 26 36 36 23 6 49 18 58 26 33 30 56 199 30
225 -17 17 -163 24 -191 9 -23 -13 -28 -50 -9 -69 7 -7 34 -12 60 -12 51 0 55
-6 42 -57 -5 -17 -20 -27 -66 -39 -33 -10 -65 -25 -71 -35 -10 -16 -12 -16
-23 -1 -9 13 -28 17 -78 17 l-66 0 0 97 c0 89 -12 148 -31 148 -4 0 -13 2 -21
4 -7 3 -23 0 -35 -6z"/>
<path d="M3232 3590 c0 -14 2 -19 5 -12 2 6 2 18 0 25 -3 6 -5 1 -5 -13z"/>
<path d="M6880 3577 c-17 -9 -26 -22 -28 -45 -3 -27 1 -34 24 -42 15 -6 33 -9
40 -6 6 2 38 1 70 -3 33 -5 65 -6 72 -3 20 7 31 44 20 65 -22 41 -142 62 -198
34z"/>
<path d="M3221 3543 c-1 -27 -13 -29 -31 -8 -14 17 -30 20 -30 5 0 -5 3 -9 8
-9 19 3 22 -2 8 -17 -9 -8 -14 -20 -11 -25 4 -5 -6 -9 -20 -9 -15 0 -24 4 -20
10 3 6 1 10 -5 10 -21 0 -4 -25 19 -28 18 -3 20 -6 10 -18 -8 -10 -8 -14 0
-14 6 0 12 -19 12 -42 2 -31 3 -35 6 -15 4 25 7 27 21 15 15 -11 15 -10 0 8
-15 17 -16 23 -4 39 9 13 15 15 20 6 4 -6 12 -9 17 -6 14 9 11 -29 -3 -44 -11
-10 -10 -11 5 -6 9 4 18 17 18 29 1 15 2 17 6 4 2 -9 13 -16 24 -15 23 2 24 5
2 29 -15 17 -15 18 11 18 34 0 30 24 -5 27 l-24 2 25 -9 25 -9 -25 2 c-22 2
-25 6 -22 35 1 17 -2 32 -8 32 -5 0 -7 -6 -4 -13 3 -8 -3 -20 -12 -28 -16 -13
-16 -12 -7 6 6 11 7 29 2 40 -7 19 -8 19 -8 -2z"/>
<path d="M4241 3541 c-21 -13 -41 -115 -48 -243 -5 -98 -3 -121 10 -142 26
-38 49 -39 147 -7 109 37 140 56 140 86 0 40 -22 48 -93 36 -35 -6 -69 -11
-75 -11 -13 0 -17 95 -6 149 6 30 7 31 65 31 46 0 60 4 68 18 18 33 -12 59
-88 76 -79 18 -100 19 -120 7z"/>
<path d="M5592 3518 c-19 -24 -99 -194 -137 -291 -29 -73 -41 -94 -46 -80 -13
37 -36 44 -164 52 -158 10 -347 -1 -381 -23 -29 -19 -31 -47 -6 -69 14 -13 38
-17 94 -17 100 0 108 -4 108 -50 l0 -39 -71 -7 c-106 -10 -109 -15 -109 -174
0 -175 -11 -168 234 -152 99 7 197 17 217 22 59 16 64 29 63 153 -1 107 -2
112 -28 134 -24 20 -38 23 -117 23 l-89 0 0 40 0 40 105 0 c90 0 108 3 124 19
19 19 19 19 14 -15 -6 -37 6 -59 38 -67 29 -8 54 22 75 87 10 31 21 56 26 56
4 0 8 -4 8 -8 0 -4 22 -25 50 -46 58 -44 97 -46 117 -6 17 35 1 56 -76 101
-34 20 -64 39 -67 41 -2 3 16 58 41 123 50 129 52 165 11 165 -13 0 -28 -6
-34 -12z m-329 -677 c-1 -24 -3 -45 -5 -46 -2 -2 -63 -7 -136 -11 l-132 -7 0
51 0 51 38 4 c20 2 82 4 137 3 l100 -1 -2 -44z"/>
<path d="M3353 3490 c-38 -23 -49 -41 -63 -106 -6 -27 -25 -67 -41 -89 l-31
-40 30 31 30 32 6 -72 c10 -102 24 -145 57 -179 28 -27 34 -29 89 -25 96 7
130 54 130 181 0 95 -17 183 -42 225 -37 61 -106 78 -165 42z m85 -117 c15
-29 24 -181 12 -203 -17 -31 -38 -24 -49 18 -30 104 1 255 37 185z"/>
<path d="M6856 3414 c-33 -32 -6 -74 47 -74 38 0 77 -10 77 -19 0 -3 -38 -56
-85 -116 -88 -113 -101 -147 -58 -153 14 -2 36 10 61 32 22 20 43 36 48 36 5
0 37 -28 71 -62 66 -65 80 -69 107 -25 16 26 -17 82 -73 122 l-50 36 36 47
c38 49 63 100 63 127 0 9 -11 27 -25 40 -22 23 -32 25 -114 25 -68 0 -93 -4
-105 -16z"/>
<path d="M3132 3395 c0 -16 2 -22 5 -12 2 9 2 23 0 30 -3 6 -5 -1 -5 -18z"/>
<path d="M3121 3334 c0 -11 3 -14 6 -6 3 7 2 16 -1 19 -3 4 -6 -2 -5 -13z"/>
<path d="M3204 3308 l-19 -23 23 19 c12 11 22 21 22 23 0 8 -8 2 -26 -19z"/>
<path d="M3111 3294 c0 -11 3 -14 6 -6 3 7 2 16 -1 19 -3 4 -6 -2 -5 -13z"/>
<path d="M3120 3254 c1 -16 29 -60 29 -44 0 8 -6 24 -14 34 -8 11 -15 16 -15
10z"/>
<path d="M6473 3074 c-56 -28 -80 -133 -49 -209 17 -41 42 -55 96 -55 54 0 84
30 99 98 18 87 -1 145 -54 168 -43 18 -52 17 -92 -2z m62 -125 c0 -24 -5 -35
-17 -37 -14 -3 -18 4 -18 31 0 18 3 37 7 41 15 14 28 -2 28 -35z"/>
<path d="M3221 2994 c-1 -74 -31 -126 -76 -134 -15 -3 -30 -11 -31 -18 -1 -7
0 -8 3 -2 2 5 12 10 20 10 13 0 13 -2 2 -17 -12 -14 -12 -16 0 -8 10 5 12 4 7
-4 -4 -6 -11 -9 -16 -6 -10 6 -65 -19 -75 -35 -3 -5 0 -7 8 -4 17 6 31 -23 20
-40 -5 -7 0 -3 10 7 9 11 17 24 17 31 0 6 -5 4 -10 -4 -7 -11 -10 -12 -10 -2
0 8 13 19 29 25 17 6 35 24 42 41 8 17 19 30 24 29 6 -1 18 12 27 30 l17 32 1
-29 c0 -16 2 -27 4 -25 3 2 1 45 -3 94 -8 82 -8 85 -10 29z"/>
<path d="M7362 3000 c0 -19 2 -27 5 -17 2 9 2 25 0 35 -3 9 -5 1 -5 -18z"/>
<path d="M7459 2843 c-45 -49 -72 -91 -64 -103 8 -14 62 25 75 53 10 21 10 21
-6 0 -17 -23 -44 -31 -44 -13 0 6 16 27 36 48 32 34 35 35 29 12 -5 -21 -4
-22 5 -7 6 10 10 24 8 33 -2 11 -13 4 -39 -23z"/>
<path d="M3242 2820 c0 -14 2 -19 5 -12 2 6 2 18 0 25 -3 6 -5 1 -5 -13z"/>
<path d="M3253 2760 c4 -14 7 -34 8 -45 0 -11 3 -14 6 -7 2 6 9 9 15 6 5 -3 2
9 -7 27 -23 44 -29 50 -22 19z"/>
<path d="M7251 2754 c0 -11 3 -14 6 -6 3 7 2 16 -1 19 -3 4 -6 -2 -5 -13z"/>
<path d="M3015 2729 c-9 -17 -15 -33 -13 -35 3 -2 12 12 21 31 21 43 13 47 -8
4z"/>
<path d="M3135 2726 c-18 -13 -18 -14 8 -9 15 3 24 9 21 14 -7 12 -7 12 -29
-5z"/>
<path d="M7241 2714 c0 -11 3 -14 6 -6 3 7 2 16 -1 19 -3 4 -6 -2 -5 -13z"/>
<path d="M7360 2699 c0 -11 37 -12 43 -1 3 4 -6 8 -19 8 -13 1 -24 -2 -24 -7z"/>
<path d="M3124 2682 c-1 -9 -3 -22 -5 -28 -2 -7 0 -12 6 -12 5 0 12 -9 16 -19
6 -14 8 -11 8 13 1 16 7 36 14 43 10 11 9 12 -1 7 -7 -4 -18 -3 -25 3 -9 7
-13 5 -13 -7z"/>
<path d="M7509 2691 l24 -6 -34 -30 c-19 -17 -28 -26 -19 -20 26 16 60 48 60
57 0 4 -12 8 -27 7 -27 -1 -27 -1 -4 -8z"/>
<path d="M3025 2679 c-4 -6 -13 -8 -21 -5 -8 3 -14 1 -14 -4 0 -15 26 -12 40
5 7 8 10 15 7 15 -3 0 -9 -5 -12 -11z"/>
<path d="M7231 2674 c0 -11 3 -14 6 -6 3 7 2 16 -1 19 -3 4 -6 -2 -5 -13z"/>
<path d="M7329 2663 c-13 -16 -12 -17 4 -4 9 7 17 15 17 17 0 8 -8 3 -21 -13z"/>
<path d="M3333 2642 c21 -26 27 -45 28 -85 1 -34 4 -41 6 -22 l5 29 19 -24 20
-25 -7 30 -7 30 34 -30 34 -30 -34 37 c-29 32 -31 37 -15 41 15 4 13 5 -6 6
-13 0 -42 18 -64 39 -39 36 -39 36 -13 4z"/>
<path d="M7386 2641 c-10 -11 -25 -17 -36 -14 -12 3 -22 -3 -30 -17 -7 -13
-18 -20 -29 -17 -9 2 -32 -9 -51 -24 -18 -16 -37 -26 -41 -24 -8 5 -32 -55
-25 -62 2 -3 7 4 10 15 12 36 76 76 122 77 22 0 47 5 55 11 8 6 32 15 54 20
30 6 34 9 17 12 -12 2 -20 8 -17 13 4 5 -2 6 -12 2 -16 -6 -16 -5 -4 10 18 23
8 22 -13 -2z m-41 -31 c-3 -5 -1 -10 5 -10 6 0 8 -4 5 -10 -12 -19 -33 -11
-28 10 3 11 10 20 15 20 5 0 6 -4 3 -10z"/>
<path d="M6912 2600 c0 -19 2 -27 5 -17 2 9 2 25 0 35 -3 9 -5 1 -5 -18z"/>
<path d="M7206 2594 c-4 -14 -5 -28 -3 -31 3 -2 8 8 11 23 4 14 5 28 3 31 -3
2 -8 -8 -11 -23z"/>
<path d="M3462 2591 c-11 -6 -10 -10 5 -16 10 -4 26 -10 36 -12 10 -1 32 -10
48 -19 17 -8 33 -13 37 -10 3 3 0 6 -6 6 -7 0 -12 7 -12 15 0 8 7 15 15 15 25
0 65 -22 58 -33 -3 -6 -1 -7 5 -3 7 4 12 9 12 11 0 12 -64 35 -99 35 -22 0
-43 5 -46 10 -8 12 -35 13 -53 1z"/>
<path d="M3110 2545 c-7 -14 -10 -28 -7 -31 4 -4 11 6 17 21 6 15 9 29 7 31
-2 2 -10 -7 -17 -21z"/>
<path d="M3301 2554 c0 -11 3 -14 6 -6 3 7 2 16 -1 19 -3 4 -6 -2 -5 -13z"/>
<path d="M6923 2555 c21 -54 34 -75 45 -75 8 0 12 -6 9 -12 -2 -7 -10 -12 -16
-10 -6 1 -11 -2 -11 -8 0 -5 5 -10 10 -10 6 0 10 -8 11 -17 0 -10 5 -3 10 15
6 21 6 39 -1 51 -5 11 -10 30 -10 42 0 18 -3 20 -12 11 -9 -9 -15 -7 -25 6 -8
9 -13 13 -10 7z"/>
<path d="M3495 2488 c15 -21 33 -38 39 -38 7 0 25 -13 41 -30 16 -16 32 -30
37 -30 4 0 -1 9 -12 20 -41 41 -10 50 48 14 12 -8 22 -12 22 -9 0 11 -66 45
-87 45 -12 0 -27 9 -33 20 -6 11 -21 20 -33 20 -13 0 -29 6 -37 13 -7 6 -1 -5
15 -25z m45 -6 c0 -13 -12 -22 -22 -16 -10 6 -1 24 13 24 5 0 9 -4 9 -8z"/>
<path d="M6868 2486 c23 -30 21 -46 -6 -46 -13 -1 -10 -6 11 -23 15 -13 27
-30 27 -39 0 -9 8 -23 18 -30 37 -27 62 -75 64 -125 1 -40 2 -42 5 -13 3 19
17 49 34 67 31 36 63 92 56 99 -2 3 -10 -9 -17 -26 -7 -17 -21 -35 -31 -40
-16 -9 -17 -7 -9 23 9 29 8 30 -5 13 -8 -11 -16 -25 -16 -30 -1 -6 -5 5 -9 24
l-7 35 -2 -45 -1 -45 -20 30 c-11 17 -20 41 -20 54 0 24 0 24 -16 5 -8 -10
-13 -13 -9 -6 10 19 -23 107 -47 128 l-22 19 22 -29z"/>
<path d="M3326 2480 c3 -14 11 -32 16 -40 6 -10 7 -7 2 10 -3 14 -11 32 -16
40 -6 10 -7 7 -2 -10z"/>
<path d="M3412 2470 c0 -19 2 -27 5 -17 2 9 2 25 0 35 -3 9 -5 1 -5 -18z"/>
<path d="M7156 2455 c-9 -26 -7 -32 5 -12 6 10 9 21 6 23 -2 3 -7 -2 -11 -11z"/>
<path d="M7766 2448 c-20 -28 -20 -48 -2 -74 8 -11 16 -40 19 -65 l4 -44 1 46
c1 30 7 49 16 52 20 8 30 61 16 86 -14 27 -35 27 -54 -1z"/>
<path d="M7082 2410 c0 -14 2 -19 5 -12 2 6 2 18 0 25 -3 6 -5 1 -5 -13z"/>
<path d="M3350 2415 c0 -5 5 -17 10 -25 5 -8 10 -10 10 -5 0 6 -5 17 -10 25
-5 8 -10 11 -10 5z"/>
<path d="M7039 2383 c-13 -16 -12 -17 4 -4 16 13 21 21 13 21 -2 0 -10 -8 -17
-17z"/>
<path d="M7122 2375 c-17 -37 -14 -45 4 -12 9 16 14 31 11 33 -2 2 -9 -7 -15
-21z"/>
<path d="M3643 2383 c9 -2 23 -2 30 0 6 3 -1 5 -18 5 -16 0 -22 -2 -12 -5z"/>
<path d="M3370 2365 c0 -5 5 -17 10 -25 5 -8 10 -10 10 -5 0 6 -5 17 -10 25
-5 8 -10 11 -10 5z"/>
<path d="M3398 2266 c2 -31 -1 -62 -8 -76 -9 -17 -9 -21 0 -15 9 5 11 -14 8
-74 -2 -45 0 -81 5 -81 4 0 7 55 7 123 l1 122 25 -47 c13 -27 27 -48 29 -48 4
0 -61 138 -69 147 -2 2 -1 -21 2 -51z"/>
<path d="M7050 2230 c-11 -22 -18 -40 -15 -40 2 0 14 18 25 40 11 22 18 40 15
40 -2 0 -14 -18 -25 -40z"/>
<path d="M7773 2220 c0 -25 2 -35 4 -22 2 12 2 32 0 45 -2 12 -4 2 -4 -23z"/>
<path d="M8448 2073 c-59 -65 -104 -120 -102 -122 2 -3 18 5 34 17 16 12 52
27 80 34 56 13 70 34 15 24 -19 -4 -35 -5 -35 -2 0 3 27 35 60 73 50 56 73 93
57 93 -2 0 -51 -53 -109 -117z"/>
<path d="M7010 2160 c-6 -11 -8 -20 -6 -20 3 0 10 9 16 20 6 11 8 20 6 20 -3
0 -10 -9 -16 -20z"/>
<path d="M3353 2149 c-16 -6 -23 -16 -22 -31 l2 -23 4 23 c2 12 8 22 13 22 10
0 22 -31 15 -38 -3 -3 -5 0 -5 7 0 7 -16 -6 -35 -29 -36 -43 -45 -61 -22 -41
8 6 16 8 19 6 11 -11 59 66 56 89 -3 20 -6 22 -25 15z"/>
<path d="M6971 2144 c0 -11 3 -14 6 -6 3 7 2 16 -1 19 -3 4 -6 -2 -5 -13z"/>
<path d="M3490 2120 c6 -11 13 -20 16 -20 2 0 0 9 -6 20 -6 11 -13 20 -16 20
-2 0 0 -9 6 -20z"/>
<path d="M7202 2131 c-11 -7 -11 -9 1 -14 9 -3 21 1 27 9 10 11 10 14 -1 14
-8 0 -20 -4 -27 -9z"/>
<path d="M6953 2079 c-14 -35 -10 -37 11 -5 9 14 12 27 8 30 -5 3 -13 -8 -19
-25z"/>
<path d="M7116 2081 c-11 -12 -24 -17 -34 -13 -16 5 -16 5 -1 -11 20 -20 74
-8 111 24 l23 21 -36 -21 c-37 -21 -52 -20 -42 5 7 19 -1 17 -21 -5z"/>
<path d="M3559 2009 c27 -46 27 -46 -9 -41 -34 5 -43 -17 -9 -25 20 -6 20 -6
-2 -29 -16 -17 -19 -28 -12 -35 7 -7 14 -5 23 6 18 21 30 19 30 -7 0 -15 3
-19 8 -11 4 7 13 9 20 4 15 -9 62 -3 62 8 0 4 -13 6 -30 3 -26 -4 -30 -1 -30
18 0 16 4 20 16 16 8 -3 13 -2 10 3 -9 14 24 22 44 11 16 -8 18 -8 14 5 -9 21
12 19 36 -5 11 -11 20 -16 20 -11 0 17 -44 41 -74 41 l-29 0 23 25 c19 21 21
25 7 25 -9 0 -16 -5 -14 -11 1 -6 -4 -14 -12 -17 -9 -3 -11 0 -6 8 4 7 -4 5
-18 -4 -24 -16 -25 -16 -57 21 l-32 38 21 -36z m-2 -55 c-3 -3 -12 -4 -19 -1
-8 3 -5 6 6 6 11 1 17 -2 13 -5z m3 -49 c-7 -9 -15 -13 -17 -11 -7 7 7 26 19
26 6 0 6 -6 -2 -15z"/>
<path d="M6910 2010 c-12 -16 -19 -30 -16 -30 2 0 14 14 26 30 12 17 19 30 16
30 -2 0 -14 -13 -26 -30z"/>
<path d="M7045 2020 c3 -5 10 -10 16 -10 5 0 9 5 9 10 0 6 -7 10 -16 10 -8 0
-12 -4 -9 -10z"/>
<path d="M3281 2004 c0 -11 3 -14 6 -6 3 7 2 16 -1 19 -3 4 -6 -2 -5 -13z"/>
<path d="M3590 2009 c0 -5 5 -7 10 -4 6 3 10 8 10 11 0 2 -4 4 -10 4 -5 0 -10
-5 -10 -11z"/>
<path d="M3330 1993 c0 -6 -11 -27 -25 -47 -13 -20 -20 -36 -15 -36 12 0 53
80 46 88 -3 3 -6 1 -6 -5z"/>
<path d="M3418 1983 c-22 -5 -25 -53 -4 -53 8 0 16 -6 19 -12 2 -7 4 6 3 29 0
24 -1 42 -1 42 0 -1 -8 -3 -17 -6z"/>
<path d="M7113 1973 c9 -2 25 -2 35 0 9 3 1 5 -18 5 -19 0 -27 -2 -17 -5z"/>
<path d="M6820 1898 c-56 -65 -58 -68 -14 -27 55 52 83 69 114 69 12 0 19 4
15 10 -4 6 -15 6 -31 0 -34 -13 -39 -13 -24 5 7 8 11 15 8 15 -2 0 -33 -33
-68 -72z"/>
<path d="M7194 1961 c3 -5 -11 -16 -32 -24 -20 -9 -31 -16 -24 -16 19 -1 72
28 72 39 0 6 -5 10 -11 10 -5 0 -8 -4 -5 -9z"/>
<path d="M6971 1951 c-18 -12 -7 -41 16 -41 14 0 15 2 4 9 -8 5 -11 16 -8 25
7 18 7 19 -12 7z"/>
<path d="M7013 1940 c-1 -8 6 -16 15 -16 9 0 33 -4 52 -7 28 -6 31 -5 12 3
-13 5 -20 14 -17 20 3 5 0 10 -7 11 -7 0 -22 2 -34 3 -12 1 -20 -4 -21 -14z"/>
<path d="M3655 1918 c3 -7 17 -18 31 -25 22 -10 24 -10 13 3 -18 22 -50 38
-44 22z"/>
<path d="M3410 1853 c0 -15 29 -49 30 -35 0 7 -7 20 -15 28 -8 9 -15 11 -15 7z"/>
<path d="M8459 1821 c-19 -21 -41 -47 -50 -58 -9 -11 -46 -28 -82 -39 -69 -19
-84 -38 -44 -53 39 -15 110 -17 114 -3 3 8 -9 12 -41 12 -24 0 -48 5 -51 10
-3 6 -4 10 -1 10 17 0 203 54 210 61 16 15 1 19 -34 9 -19 -5 -36 -7 -39 -5
-2 3 12 23 33 44 21 21 33 41 28 45 -5 3 -25 -11 -43 -33z"/>
<path d="M3605 1830 c10 -11 20 -20 23 -20 3 0 -3 9 -13 20 -10 11 -20 20 -23
20 -3 0 3 -9 13 -20z"/>
<path d="M3762 1820 c0 -19 2 -27 5 -17 2 9 2 25 0 35 -3 9 -5 1 -5 -18z"/>
<path d="M3650 1836 c0 -2 8 -10 18 -17 15 -13 16 -12 3 4 -13 16 -21 21 -21
13z"/>
<path d="M3640 1780 c6 -11 13 -20 16 -20 2 0 0 9 -6 20 -6 11 -13 20 -16 20
-2 0 0 -9 6 -20z"/>
<path d="M3695 1770 c4 -8 15 -23 23 -32 13 -15 13 -18 1 -19 -8 0 -3 -5 10
-10 13 -5 25 -8 26 -7 2 2 -13 21 -33 43 -19 22 -31 33 -27 25z"/>
<path d="M3749 1758 c26 -30 41 -36 41 -16 0 6 -3 8 -7 5 -3 -4 -18 3 -32 15
l-26 23 24 -27z"/>
<path d="M3660 1746 c0 -3 9 -10 20 -16 11 -6 20 -8 20 -6 0 3 -9 10 -20 16
-11 6 -20 8 -20 6z"/>
<path d="M6660 1710 c-18 -12 -2 -12 25 0 13 6 15 9 5 9 -8 0 -22 -4 -30 -9z"/>
<path d="M6664 1678 l-19 -23 23 19 c21 18 27 26 19 26 -2 0 -12 -10 -23 -22z"/>
<path d="M6495 1665 c-16 -15 -25 -36 -25 -55 0 -18 -4 -29 -10 -25 -6 4 -8
-6 -6 -25 3 -31 -5 -42 -74 -93 -25 -18 -25 -18 5 -1 17 9 39 23 50 31 28 19
32 17 27 -17 -5 -34 17 -43 25 -9 6 20 6 20 29 -2 17 -16 28 -19 35 -12 7 7 5
14 -6 23 -21 18 -19 30 8 30 16 0 18 3 9 9 -11 7 -9 13 10 30 16 16 18 20 6
16 -13 -5 -18 -2 -18 8 0 9 -4 18 -8 21 -5 3 -6 -8 -4 -25 4 -25 1 -29 -18
-29 -16 0 -20 4 -16 16 3 8 2 12 -4 9 -6 -3 -10 -2 -10 4 0 5 6 14 13 18 6 4
18 19 25 33 13 24 12 24 -12 -2 -29 -33 -41 -36 -26 -8 9 16 8 18 -5 14 -33
-13 -7 34 30 54 11 6 14 12 7 12 -7 0 -24 -11 -37 -25z m41 -192 c-7 -7 -26 7
-26 19 0 6 6 6 15 -2 9 -7 13 -15 11 -17z m-59 -5 c-3 -8 -6 -5 -6 6 -1 11 2
17 5 13 3 -3 4 -12 1 -19z"/>
<path d="M6699 1663 c-13 -15 -16 -21 -6 -14 19 15 22 9 7 -20 -6 -10 -8 -19
-5 -19 8 0 38 71 32 76 -2 2 -14 -8 -28 -23z"/>
<path d="M6644 1624 c-18 -14 -18 -15 4 -4 12 6 22 13 22 15 0 8 -5 6 -26 -11z"/>
<path d="M3968 1597 c17 -21 32 -45 33 -55 2 -38 -3 -77 -12 -80 -5 -2 -9 -13
-8 -25 0 -21 1 -21 10 -2 7 15 8 9 4 -20 -3 -22 -8 -58 -10 -80 -3 -33 -3 -35
4 -10 4 17 12 29 19 28 7 -2 9 4 5 14 -4 9 -2 14 3 10 10 -6 10 48 -1 98 -6
29 -6 29 9 11 20 -25 20 -10 1 24 -22 38 -19 57 5 35 11 -10 20 -16 20 -13 0
2 -26 26 -57 53 -52 45 -55 46 -25 12z m49 -179 c-3 -8 -6 -5 -6 6 -1 11 2 17
5 13 3 -3 4 -12 1 -19z"/>
<path d="M6420 1608 c0 -8 6 -22 13 -32 12 -16 13 -15 12 10 0 15 -6 29 -12
32 -7 2 -13 -3 -13 -10z"/>
<path d="M6599 1593 c-13 -16 -12 -17 4 -4 16 13 21 21 13 21 -2 0 -10 -8 -17
-17z"/>
<path d="M4561 1573 c-10 -26 -10 -27 4 -9 8 11 15 23 15 28 0 15 -7 8 -19
-19z"/>
<path d="M6665 1590 c-3 -6 1 -7 9 -4 18 7 21 14 7 14 -6 0 -13 -4 -16 -10z"/>
<path d="M5876 1574 c-5 -14 -4 -15 9 -4 17 14 19 20 6 20 -5 0 -12 -7 -15
-16z"/>
<path d="M4480 1555 c-13 -14 -31 -25 -40 -25 -9 0 -26 -13 -37 -28 -12 -16
-38 -37 -58 -46 l-37 -18 38 -31 c43 -36 74 -56 89 -56 6 0 -3 7 -20 16 -16 9
-36 23 -44 31 -14 13 -12 14 18 10 l33 -5 -23 18 -24 18 40 4 c38 3 37 4 -10
6 l-50 2 40 25 c22 13 39 29 37 35 -1 6 2 8 8 4 6 -3 8 -11 5 -16 -4 -5 -2 -9
3 -9 6 0 12 6 15 14 3 8 19 17 36 21 34 7 51 24 23 21 -10 0 -16 6 -16 17 2
22 2 22 -26 -8z"/>
<path d="M5992 1568 c-5 -7 -13 -28 -17 -45 -3 -18 -13 -37 -22 -41 -13 -8
-13 -10 1 -15 18 -7 22 -27 5 -27 -5 0 -8 4 -5 8 3 5 -2 9 -10 9 -8 0 -13 -6
-10 -12 6 -16 -73 -110 -90 -109 -8 1 -14 -5 -14 -14 0 -9 -12 -30 -27 -46
-16 -17 -19 -23 -8 -15 11 9 47 20 80 25 50 7 54 9 26 12 l-34 4 29 19 29 20
-29 -7 -30 -7 22 29 c39 52 57 71 75 77 9 4 17 14 17 24 0 9 10 28 23 41 17
20 18 24 5 19 -14 -5 -18 -1 -18 16 0 13 5 28 12 35 7 7 9 12 6 12 -3 0 -10
-6 -16 -12z"/>
<path d="M5902 1540 c0 -14 2 -19 5 -12 2 6 2 18 0 25 -3 6 -5 1 -5 -13z"/>
<path d="M6599 1543 c-13 -16 -12 -17 4 -4 16 13 21 21 13 21 -2 0 -10 -8 -17
-17z"/>
<path d="M6410 1530 c0 -5 5 -10 11 -10 5 0 7 5 4 10 -3 6 -8 10 -11 10 -2 0
-4 -4 -4 -10z"/>
<path d="M4060 1526 c0 -2 8 -10 18 -17 15 -13 16 -12 3 4 -13 16 -21 21 -21
13z"/>
<path d="M4648 1513 c6 -2 18 -2 25 0 6 3 1 5 -13 5 -14 0 -19 -2 -12 -5z"/>
<path d="M5852 1490 c4 -22 1 -41 -7 -50 -10 -11 -11 -25 -5 -50 4 -19 8 -28
9 -19 1 9 8 22 17 30 8 7 13 20 11 29 -2 9 2 28 9 41 16 29 18 42 4 34 -6 -4
-18 -1 -27 7 -14 12 -15 9 -11 -22z"/>
<path d="M4587 1491 c-16 -10 -37 -16 -48 -14 -10 3 -25 -2 -34 -11 -14 -14
-14 -16 10 -22 14 -3 31 -1 39 5 8 7 25 9 40 5 26 -6 37 10 14 20 -9 3 -7 9 6
20 28 22 7 20 -27 -3z m-42 -31 c3 -5 -1 -10 -9 -10 -9 0 -16 5 -16 10 0 6 4
10 9 10 6 0 13 -4 16 -10z"/>
<path d="M4100 1495 c0 -5 67 -50 123 -84 20 -12 37 -20 37 -18 0 3 -17 15
-37 28 -21 12 -43 27 -48 33 -12 13 -75 47 -75 41z"/>
<path d="M4679 1483 c-13 -16 -12 -17 4 -4 16 13 21 21 13 21 -2 0 -10 -8 -17
-17z"/>
<path d="M4248 1443 c7 -3 16 -2 19 1 4 3 -2 6 -13 5 -11 0 -14 -3 -6 -6z"/>
<path d="M6324 1434 c-18 -14 -18 -15 4 -4 12 6 22 13 22 15 0 8 -5 6 -26 -11z"/>
<path d="M6268 1404 c-38 -20 -36 -28 2 -9 17 9 30 18 30 20 0 7 -1 6 -32 -11z"/>
<path d="M4080 1376 c0 -9 5 -16 10 -16 6 0 10 4 10 9 0 6 -4 13 -10 16 -5 3
-10 -1 -10 -9z"/>
<path d="M4270 1386 c0 -3 14 -12 30 -21 17 -9 30 -13 30 -11 0 3 -13 12 -30
21 -16 9 -30 13 -30 11z"/>
<path d="M4476 1357 c3 -10 9 -15 12 -12 3 3 0 11 -7 18 -10 9 -11 8 -5 -6z"/>
<path d="M6448 1349 c2 -10 16 -19 31 -21 23 -3 27 -1 24 13 -3 11 2 19 14 22
10 2 -3 4 -28 3 -37 -1 -45 -4 -41 -17z"/>
<path d="M6570 1366 c0 -9 40 -13 46 -5 3 5 -6 9 -20 9 -14 0 -26 -2 -26 -4z"/>
<path d="M4031 1344 c0 -11 3 -14 6 -6 3 7 2 16 -1 19 -3 4 -6 -2 -5 -13z"/>
<path d="M6088 1317 c-115 -48 -125 -62 -14 -17 42 16 91 31 109 31 17 1 24 3
14 6 -9 2 -15 9 -12 14 4 5 5 9 3 8 -2 0 -47 -19 -100 -42z"/>
<path d="M5958 1343 c6 -2 18 -2 25 0 6 3 1 5 -13 5 -14 0 -19 -2 -12 -5z"/>
<path d="M6000 1341 c0 -5 -14 -14 -30 -21 -17 -7 -29 -15 -26 -17 6 -6 63 24
71 37 3 5 1 10 -4 10 -6 0 -11 -4 -11 -9z"/>
<path d="M4113 1332 c-8 -5 -7 -15 2 -37 7 -16 14 -24 14 -16 1 9 8 11 22 8
21 -6 21 -5 -2 21 -13 15 -24 28 -24 29 0 1 -6 -1 -12 -5z"/>
<path d="M6394 1325 c16 -9 34 -14 40 -11 6 2 3 5 -7 5 -10 1 -15 6 -12 11 4
6 -6 10 -22 10 l-28 0 29 -15z"/>
<path d="M4380 1326 c0 -2 44 -23 98 -46 113 -49 129 -61 153 -114 13 -30 15
-45 7 -60 -9 -16 -7 -23 11 -37 13 -11 21 -29 21 -49 0 -17 5 -41 11 -53 18
-34 71 -87 81 -80 6 3 -1 10 -13 17 -13 6 -34 27 -46 45 -25 36 -31 67 -11 55
8 -5 9 0 5 15 -5 19 -3 21 11 9 15 -11 14 -10 0 8 -10 11 -18 29 -18 40 0 11
-9 27 -20 37 -22 18 -28 43 -7 31 13 -8 -2 14 -37 54 -19 22 -19 22 0 22 10 0
-24 18 -77 39 -53 22 -111 46 -127 55 -31 16 -42 19 -42 12z m280 -238 c0 -9
4 -8 10 2 8 13 10 12 10 -3 0 -12 -6 -17 -17 -15 -18 3 -31 28 -14 28 6 0 11
-6 11 -12z"/>
<path d="M6230 1326 c0 -2 7 -6 15 -10 8 -3 15 -1 15 4 0 6 -7 10 -15 10 -8 0
-15 -2 -15 -4z"/>
<path d="M6279 1286 c5 -13 19 -22 36 -24 15 -2 37 -12 48 -23 24 -22 45 -26
28 -6 -6 8 -8 16 -6 19 10 10 -61 56 -87 56 -23 0 -25 -3 -19 -22z m51 -1 c0
-8 -9 -15 -20 -15 -11 0 -20 5 -20 11 0 6 7 8 16 5 8 -3 12 -2 9 4 -3 6 -1 10
4 10 6 0 11 -7 11 -15z"/>
<path d="M6398 1273 c7 -3 16 -2 19 1 4 3 -2 6 -13 5 -11 0 -14 -3 -6 -6z"/>
<path d="M5935 1255 c-25 -12 -26 -14 -5 -9 28 7 60 23 45 23 -5 0 -23 -6 -40
-14z"/>
<path d="M6455 1253 c17 -8 38 -22 48 -31 9 -8 17 -11 17 -5 0 10 -71 53 -86
53 -5 -1 5 -8 21 -17z"/>
<path d="M4000 1257 c0 -15 20 -47 30 -47 6 0 9 10 9 23 -1 19 -2 20 -6 3 -5
-18 -6 -18 -19 5 -7 13 -13 20 -14 16z"/>
<path d="M4145 1240 c10 -11 20 -20 23 -20 3 0 -3 9 -13 20 -10 11 -20 20 -23
20 -3 0 3 -9 13 -20z"/>
<path d="M4184 1225 c2 -16 8 -31 15 -33 15 -5 14 7 -4 38 l-14 25 3 -30z"/>
<path d="M5749 1233 c-13 -16 -12 -17 4 -4 9 7 17 15 17 17 0 8 -8 3 -21 -13z"/>
<path d="M4967 1220 c7 -28 -15 -54 -33 -39 -7 6 -19 9 -26 6 -9 -4 -8 -6 3
-6 9 -1 22 -8 29 -16 13 -16 0 -21 -15 -6 -6 5 -19 5 -30 1 -20 -8 -20 -9 1
-9 31 -1 36 -12 14 -28 -11 -8 -20 -19 -20 -25 0 -7 7 -3 16 8 15 19 16 19 9
-1 -5 -16 -4 -17 6 -8 9 9 16 10 26 2 15 -13 18 -53 3 -44 -5 3 -10 1 -10 -4
0 -19 22 -12 27 10 3 12 11 18 19 15 8 -3 14 -1 14 4 0 6 3 9 8 9 18 -3 35 2
29 8 -4 3 -1 13 5 22 10 13 9 13 -7 -1 -25 -21 -56 -7 -48 22 6 22 16 25 42
11 13 -7 18 -6 18 5 0 7 -10 14 -21 14 -17 0 -18 2 -6 10 13 9 13 11 0 20 -12
8 -13 10 -1 10 8 0 11 3 8 7 -4 3 -16 -2 -27 -12 -20 -18 -20 -17 -20 8 0 15
-4 27 -9 27 -5 0 -7 -9 -4 -20z"/>
<path d="M5048 1223 c6 -2 18 -2 25 0 6 3 1 5 -13 5 -14 0 -19 -2 -12 -5z"/>
<path d="M4951 1204 c0 -11 3 -14 6 -6 3 7 2 16 -1 19 -3 4 -6 -2 -5 -13z"/>
<path d="M5115 1196 c17 -14 46 -36 65 -48 19 -12 38 -27 42 -32 4 -6 11 -7
15 -2 4 5 2 11 -5 13 -7 3 -34 20 -60 39 -64 46 -94 61 -57 30z"/>
<path d="M4695 1200 c11 -5 27 -9 35 -9 9 0 8 4 -5 9 -11 5 -27 9 -35 9 -9 0
-8 -4 5 -9z"/>
<path d="M5680 1195 c-24 -14 -24 -14 -3 -15 12 0 25 5 28 11 11 17 2 18 -25
4z"/>
<path d="M5768 1203 c7 -3 16 -2 19 1 4 3 -2 6 -13 5 -11 0 -14 -3 -6 -6z"/>
<path d="M5728 1193 c7 -3 16 -2 19 1 4 3 -2 6 -13 5 -11 0 -14 -3 -6 -6z"/>
<path d="M4758 1183 c7 -3 16 -2 19 1 4 3 -2 6 -13 5 -11 0 -14 -3 -6 -6z"/>
<path d="M4798 1173 c7 -3 16 -2 19 1 4 3 -2 6 -13 5 -11 0 -14 -3 -6 -6z"/>
<path d="M5618 1173 c6 -2 18 -2 25 0 6 3 1 5 -13 5 -14 0 -19 -2 -12 -5z"/>
<path d="M4838 1163 c6 -2 18 -2 25 0 6 3 1 5 -13 5 -14 0 -19 -2 -12 -5z"/>
<path d="M5558 1163 c6 -2 18 -2 25 0 6 3 1 5 -13 5 -14 0 -19 -2 -12 -5z"/>
<path d="M5485 1149 c48 -12 95 -53 88 -79 -3 -10 1 -21 8 -26 9 -5 10 -2 6
10 -14 36 18 9 40 -35 25 -47 75 -86 123 -96 36 -7 39 7 8 33 l-23 19 19 -22
c25 -30 4 -30 -48 0 -43 24 -50 35 -36 57 8 12 11 12 27 0 11 -8 8 -5 -5 8
-13 12 -28 20 -33 17 -5 -4 -12 1 -15 9 -3 9 -9 14 -13 12 -8 -5 -63 49 -61
60 3 14 -62 44 -93 43 -31 -1 -31 -1 8 -10z"/>
<path d="M5120 1146 c0 -2 8 -10 18 -17 15 -13 16 -12 3 4 -13 16 -21 21 -21
13z"/>
<path d="M6899 1080 c-45 -47 -69 -80 -69 -95 0 -13 -11 -37 -25 -53 l-24 -29
24 -11 c23 -10 27 -7 69 56 25 37 65 92 91 122 46 57 51 73 21 78 -11 2 -43
-23 -87 -68z"/>
<path d="M4734 1083 c16 -18 32 -31 34 -28 3 3 3 6 1 8 -2 1 -17 13 -34 27
l-30 25 29 -32z"/>
<path d="M5068 1093 c12 -2 30 -2 40 0 9 3 -1 5 -23 4 -22 0 -30 -2 -17 -4z"/>
<path d="M5699 1092 c-15 -6 -15 -9 0 -24 16 -16 17 -16 17 7 0 14 0 25 0 24
-1 0 -8 -3 -17 -7z"/>
<path d="M5748 1088 c9 -9 9 -15 0 -27 -7 -9 -9 -13 -4 -9 5 4 18 1 30 -7 28
-20 31 -19 31 10 0 19 -5 25 -22 25 -13 0 -23 5 -23 10 0 6 -5 10 -12 10 -9 0
-9 -3 0 -12z"/>
<path d="M5138 1083 c7 -3 16 -2 19 1 4 3 -2 6 -13 5 -11 0 -14 -3 -6 -6z"/>
<path d="M5188 1073 c6 -2 9 -9 6 -15 -4 -5 4 -4 17 2 36 19 35 20 -2 19 -19
0 -28 -3 -21 -6z"/>
<path d="M4793 1059 c11 -7 16 -17 12 -29 -8 -25 37 -74 86 -94 23 -9 44 -14
47 -11 3 3 3 6 1 8 -2 1 -17 13 -34 27 -26 22 -28 22 -11 3 24 -28 11 -29 -32
-3 -32 20 -36 47 -5 35 9 -3 -2 13 -24 35 -23 22 -45 40 -49 40 -5 0 -1 -5 9
-11z"/>
<path d="M5023 1063 c9 -2 23 -2 30 0 6 3 -1 5 -18 5 -16 0 -22 -2 -12 -5z"/>
<path d="M5876 1045 c10 -8 26 -14 34 -14 9 0 4 6 -10 14 -33 19 -49 19 -24 0z"/>
<path d="M5133 1043 c9 -2 23 -2 30 0 6 3 -1 5 -18 5 -16 0 -22 -2 -12 -5z"/>
<path d="M5843 1023 c9 -2 23 -2 30 0 6 3 -1 5 -18 5 -16 0 -22 -2 -12 -5z"/>
<path d="M4726 997 c3 -10 9 -15 12 -12 3 3 0 11 -7 18 -10 9 -11 8 -5 -6z"/>
<path d="M4751 924 c0 -11 3 -14 6 -6 3 7 2 16 -1 19 -3 4 -6 -2 -5 -13z"/>
</g>
</svg>
